<svg width="144" height="77" viewBox="0 0 144 77" fill="none" xmlns="http://www.w3.org/2000/svg">
<path d="M136.21 38.2381L123.334 51.1141L82.5191 10.2991L78.2261 14.5921L121.187 57.5531C121.78 58.1431 122.558 58.4411 123.333 58.4411C124.111 58.4411 124.886 58.1431 125.479 57.5531L140.501 42.5311L136.21 38.2381Z" fill="url(#paint0_linear_23_10)"/>
<path d="M121.189 23.2181L130.522 32.5491L121.177 23.2041C121.181 23.2091 121.185 23.2141 121.189 23.2181Z" fill="url(#paint1_linear_23_10)"/>
<path d="M142.649 36.092C143.218 36.662 143.537 37.433 143.537 38.238C143.537 39.043 143.217 39.815 142.648 40.384L125.481 57.551C124.888 58.143 124.112 58.44 123.335 58.44C122.558 58.44 121.782 58.144 121.189 57.551L119.043 55.405L110.263 64.185C102.71 71.738 90.835 72.402 82.5201 66.178L106.169 42.531L101.877 38.239L75.929 64.185C75.36 64.754 75.04 65.526 75.04 66.331C75.04 67.136 75.36 67.908 75.929 68.477C81.254 73.801 88.249 76.462 95.243 76.462C102.237 76.462 109.231 73.8 114.555 68.476L142.649 40.382C143.218 39.813 143.538 39.041 143.538 38.236C143.538 37.431 143.218 36.661 142.649 36.092Z" fill="url(#paint2_linear_23_10)"/>
<path d="M125.481 57.5532L120.559 62.4781L114.556 68.4792C109.231 73.8042 102.238 76.4632 95.244 76.4632C89.919 76.4632 84.589 74.9212 80.001 71.8282C79.386 71.4142 78.784 70.9732 78.197 70.5042C77.414 69.8812 76.655 69.2052 75.929 68.4792C75.361 67.9112 75.041 67.1382 75.041 66.3332C75.041 65.5272 75.361 64.7551 75.929 64.1871L99.101 41.0212L101.879 38.2432L103.904 40.2712L106.169 42.5332L103.391 45.3112L82.52 66.1822C83.127 66.6372 83.753 67.0542 84.396 67.4342C92.546 72.2732 103.261 71.1891 110.263 64.1871L116.266 58.1862L119.044 55.4082L121.188 57.5542C121.781 58.1442 122.559 58.4422 123.334 58.4422C124.113 58.4412 124.888 58.1432 125.481 57.5532Z" fill="url(#paint3_linear_23_10)"/>
<path d="M106.169 42.5312L103.391 45.3092L82.52 66.1802L78.197 70.5032C77.414 69.8802 76.655 69.2042 75.929 68.4782C75.361 67.9102 75.041 67.1372 75.041 66.3322C75.041 65.5262 75.361 64.7542 75.929 64.1862L99.101 41.0202L101.879 38.2422L103.904 40.2702L106.169 42.5312Z" fill="url(#paint4_linear_23_10)"/>
<path d="M143.538 38.238C143.538 39.044 143.218 39.816 142.65 40.384L140.504 42.53L110.267 12.293C106.253 8.279 100.92 6.06899 95.245 6.06899C90.594 6.06899 86.174 7.553 82.521 10.298L78.228 14.591L75.93 12.293C75.362 11.722 75.042 10.952 75.042 10.147C75.042 9.341 75.362 8.569 75.93 8.001C81.089 2.842 87.948 0 95.245 0C102.539 0 109.398 2.842 114.557 8.001L142.651 36.092C143.218 36.663 143.538 37.432 143.538 38.238Z" fill="url(#paint5_linear_23_10)"/>
<g opacity="0.61">
<path d="M103.904 40.269L106.169 42.531L103.391 45.309L99.1011 41.019L101.879 38.241L103.904 40.269Z" fill="url(#paint6_linear_23_10)"/>
<path d="M125.481 57.553L120.559 62.478L116.266 58.185L119.044 55.407L121.188 57.553C121.781 58.143 122.559 58.441 123.334 58.441C124.113 58.441 124.888 58.143 125.481 57.553Z" fill="url(#paint7_linear_23_10)"/>
<path d="M84.396 67.4319L80.001 71.8269C79.386 71.4129 78.784 70.9719 78.197 70.5029L82.52 66.1799C83.127 66.6349 83.753 67.0519 84.396 67.4319Z" fill="url(#paint8_linear_23_10)"/>
</g>
<path d="M3.03394 42.5311L18.0559 57.5531C18.6489 58.1431 19.4239 58.4411 20.2019 58.4411C20.9769 58.4411 21.7549 58.1431 22.3479 57.5531L65.3089 14.5921L61.0159 10.2991L20.2009 51.1141L7.32494 38.2381L3.03394 42.5311Z" fill="url(#paint9_linear_23_10)"/>
<path d="M22.348 23.2181L13.015 32.5491L22.36 23.2041C22.356 23.2091 22.353 23.2141 22.348 23.2181Z" fill="url(#paint10_linear_23_10)"/>
<path d="M0.888992 36.092C0.319992 36.662 0.000991821 37.433 0.000991821 38.238C0.000991821 39.043 0.320999 39.815 0.889999 40.384L18.057 57.551C18.65 58.143 19.426 58.44 20.203 58.44C20.98 58.44 21.756 58.144 22.349 57.551L24.495 55.405L33.275 64.185C40.828 71.738 52.703 72.402 61.018 66.178L37.369 42.531L41.661 38.239L67.609 64.185C68.178 64.754 68.498 65.526 68.498 66.331C68.498 67.136 68.178 67.908 67.609 68.477C62.284 73.801 55.29 76.462 48.295 76.462C41.301 76.462 34.307 73.8 28.983 68.476L0.888992 40.382C0.319992 39.813 0 39.041 0 38.236C0 37.431 0.318992 36.661 0.888992 36.092Z" fill="url(#paint11_linear_23_10)"/>
<path d="M18.056 57.5532L22.978 62.4781L28.981 68.4792C34.306 73.8042 41.299 76.4632 48.293 76.4632C53.618 76.4632 58.948 74.9212 63.536 71.8282C64.151 71.4142 64.753 70.9732 65.34 70.5042C66.123 69.8812 66.882 69.2052 67.608 68.4792C68.176 67.9112 68.496 67.1382 68.496 66.3332C68.496 65.5272 68.176 64.7551 67.608 64.1871L44.436 41.0212L41.658 38.2432L39.633 40.2712L37.368 42.5332L40.146 45.3112L61.017 66.1822C60.41 66.6372 59.784 67.0542 59.141 67.4342C50.991 72.2732 40.276 71.1891 33.274 64.1871L27.271 58.1862L24.493 55.4082L22.349 57.5542C21.756 58.1442 20.978 58.4422 20.203 58.4422C19.425 58.4412 18.649 58.1432 18.056 57.5532Z" fill="url(#paint12_linear_23_10)"/>
<path d="M37.368 42.5312L40.146 45.3092L61.017 66.1802L65.34 70.5032C66.123 69.8802 66.882 69.2042 67.608 68.4782C68.176 67.9102 68.496 67.1372 68.496 66.3322C68.496 65.5262 68.176 64.7542 67.608 64.1862L44.4361 41.0202L41.6581 38.2422L39.633 40.2702L37.368 42.5312Z" fill="url(#paint13_linear_23_10)"/>
<path d="M0 38.238C0 39.044 0.32 39.816 0.888 40.384L3.034 42.53L33.271 12.293C37.285 8.279 42.618 6.06899 48.293 6.06899C52.945 6.06899 57.364 7.553 61.017 10.298L65.31 14.591L67.608 12.293C68.176 11.722 68.496 10.952 68.496 10.147C68.496 9.341 68.176 8.569 67.608 8.001C62.449 2.842 55.59 0 48.293 0C40.999 0 34.14 2.842 28.981 8.001L0.886993 36.092C0.319993 36.663 0 37.432 0 38.238Z" fill="url(#paint14_linear_23_10)"/>
<g opacity="0.61">
<path d="M39.633 40.269L37.368 42.531L40.147 45.309L44.437 41.019L41.6581 38.241L39.633 40.269Z" fill="url(#paint15_linear_23_10)"/>
<path d="M18.056 57.553L22.978 62.478L27.271 58.185L24.493 55.407L22.349 57.553C21.756 58.143 20.978 58.441 20.203 58.441C19.425 58.441 18.649 58.143 18.056 57.553Z" fill="url(#paint16_linear_23_10)"/>
<path d="M59.141 67.4319L63.536 71.8269C64.151 71.4129 64.753 70.9719 65.34 70.5029L61.017 66.1799C60.41 66.6349 59.784 67.0519 59.141 67.4319Z" fill="url(#paint17_linear_23_10)"/>
</g>
<defs>
<linearGradient id="paint0_linear_23_10" x1="78.2273" y1="34.3702" x2="140.503" y2="34.3702" gradientUnits="userSpaceOnUse">
<stop stop-color="#86FF1D"/>
<stop offset="1" stop-color="#4FA900"/>
</linearGradient>
<linearGradient id="paint1_linear_23_10" x1="121.177" y1="27.8772" x2="130.522" y2="27.8772" gradientUnits="userSpaceOnUse">
<stop stop-color="#86FF1D"/>
<stop offset="1" stop-color="#4FA900"/>
</linearGradient>
<linearGradient id="paint2_linear_23_10" x1="75.0407" y1="52.7362" x2="143.538" y2="52.7362" gradientUnits="userSpaceOnUse">
<stop stop-color="#86FF1D"/>
<stop offset="1" stop-color="#4FA900"/>
</linearGradient>
<linearGradient id="paint3_linear_23_10" x1="75.0407" y1="57.3516" x2="125.481" y2="57.3516" gradientUnits="userSpaceOnUse">
<stop stop-color="#86FF1D"/>
<stop offset="1" stop-color="#4FA900"/>
</linearGradient>
<linearGradient id="paint4_linear_23_10" x1="75.0407" y1="54.372" x2="106.169" y2="54.372" gradientUnits="userSpaceOnUse">
<stop stop-color="#86FF1D"/>
<stop offset="1" stop-color="#4FA900"/>
</linearGradient>
<linearGradient id="paint5_linear_23_10" x1="120.02" y1="13.462" x2="98.5587" y2="34.9232" gradientUnits="userSpaceOnUse">
<stop stop-color="#86FF1D"/>
<stop offset="1" stop-color="#4FA900"/>
</linearGradient>
<linearGradient id="paint6_linear_23_10" x1="104.175" y1="40.235" x2="101.75" y2="42.6603" gradientUnits="userSpaceOnUse">
<stop stop-color="#00112D"/>
<stop offset="0.9901" stop-color="#0029A9" stop-opacity="0"/>
</linearGradient>
<linearGradient id="paint7_linear_23_10" x1="121.342" y1="57.4021" x2="118.917" y2="59.8274" gradientUnits="userSpaceOnUse">
<stop stop-color="#00112D"/>
<stop offset="0.9901" stop-color="#0029A9" stop-opacity="0"/>
</linearGradient>
<linearGradient id="paint8_linear_23_10" x1="80.3457" y1="68.0167" x2="82.3201" y2="69.9911" gradientUnits="userSpaceOnUse">
<stop stop-color="#00112D"/>
<stop offset="0.9901" stop-color="#0029A9" stop-opacity="0"/>
</linearGradient>
<linearGradient id="paint9_linear_23_10" x1="65.31" y1="34.3702" x2="3.03423" y2="34.3702" gradientUnits="userSpaceOnUse">
<stop stop-color="#86FF1D"/>
<stop offset="1" stop-color="#4FA900"/>
</linearGradient>
<linearGradient id="paint10_linear_23_10" x1="22.3609" y1="27.8772" x2="13.0157" y2="27.8772" gradientUnits="userSpaceOnUse">
<stop stop-color="#86FF1D"/>
<stop offset="1" stop-color="#4FA900"/>
</linearGradient>
<linearGradient id="paint11_linear_23_10" x1="68.4967" y1="52.7362" x2="-0.000498096" y2="52.7362" gradientUnits="userSpaceOnUse">
<stop stop-color="#86FF1D"/>
<stop offset="1" stop-color="#4FA900"/>
</linearGradient>
<linearGradient id="paint12_linear_23_10" x1="68.4967" y1="57.3516" x2="18.0564" y2="57.3516" gradientUnits="userSpaceOnUse">
<stop stop-color="#86FF1D"/>
<stop offset="1" stop-color="#4FA900"/>
</linearGradient>
<linearGradient id="paint13_linear_23_10" x1="68.4967" y1="54.372" x2="37.3684" y2="54.372" gradientUnits="userSpaceOnUse">
<stop stop-color="#86FF1D"/>
<stop offset="1" stop-color="#4FA900"/>
</linearGradient>
<linearGradient id="paint14_linear_23_10" x1="23.5175" y1="13.462" x2="44.9787" y2="34.9232" gradientUnits="userSpaceOnUse">
<stop stop-color="#86FF1D"/>
<stop offset="1" stop-color="#4FA900"/>
</linearGradient>
<linearGradient id="paint15_linear_23_10" x1="39.3628" y1="40.235" x2="41.7879" y2="42.6603" gradientUnits="userSpaceOnUse">
<stop stop-color="#00112D"/>
<stop offset="0.9901" stop-color="#0029A9" stop-opacity="0"/>
</linearGradient>
<linearGradient id="paint16_linear_23_10" x1="22.1958" y1="57.4021" x2="24.6209" y2="59.8274" gradientUnits="userSpaceOnUse">
<stop stop-color="#00112D"/>
<stop offset="0.9901" stop-color="#0029A9" stop-opacity="0"/>
</linearGradient>
<linearGradient id="paint17_linear_23_10" x1="63.1917" y1="68.0167" x2="61.2175" y2="69.9911" gradientUnits="userSpaceOnUse">
<stop stop-color="#00112D"/>
<stop offset="0.9901" stop-color="#0029A9" stop-opacity="0"/>
</linearGradient>
</defs>
</svg>
