<svg width="145" height="78" viewBox="0 0 145 78" fill="none" xmlns="http://www.w3.org/2000/svg">
<path d="M122.411 23.4419L122.423 23.456L131.85 32.8827L122.411 23.4419Z" fill="white"/>
<path d="M145 38.6283C145 37.9973 144.8 37.3884 144.441 36.8764C144.339 36.7292 144.23 36.5881 144.101 36.4611L115.722 8.08406C110.51 2.87273 103.581 0.00195312 96.213 0.00195312C88.8425 0.00195312 81.9136 2.87273 76.7022 8.08406C76.1277 8.65861 75.8051 9.43878 75.8051 10.2532C75.8051 11.0677 76.1277 11.8439 76.7022 12.4225L79.0226 14.7449L102.912 38.6343L84.3469 57.1976L76.7002 64.8422C76.1257 65.4167 75.8031 66.197 75.8031 67.0114C75.8031 67.1465 75.8253 67.2795 75.8434 67.4126C75.9321 68.0778 76.2224 68.7008 76.7002 69.1806C76.7284 69.2088 76.7587 69.231 76.7869 69.2592C77.4744 69.9406 78.188 70.5736 78.9239 71.1684C78.946 71.1865 78.9662 71.2087 78.9904 71.2268C79.5831 71.7006 80.1919 72.1461 80.8128 72.5654C80.8411 72.5836 80.8693 72.5997 80.8975 72.6178C81.0991 72.7529 81.3088 72.8719 81.5144 73.0009C82.0144 73.3174 82.5204 73.6178 83.0365 73.898C83.2925 74.0371 83.5485 74.1682 83.8066 74.2972C84.3166 74.5532 84.8327 74.7911 85.3569 75.0149C85.5867 75.1137 85.8125 75.2165 86.0443 75.3092C86.7842 75.6016 87.5321 75.8676 88.2901 76.0934C88.4171 76.1317 88.5482 76.158 88.6752 76.1942C89.3223 76.3777 89.9735 76.5349 90.6287 76.67C90.8888 76.7224 91.1488 76.7668 91.4089 76.8132C91.9633 76.9099 92.5177 76.9906 93.0761 77.053C93.3301 77.0813 93.5862 77.1155 93.8402 77.1377C94.5962 77.2022 95.3542 77.2426 96.1142 77.2466C96.1464 77.2466 96.1787 77.2506 96.211 77.2506C99.8801 77.2506 103.543 76.5087 106.976 75.0592C110.154 73.7166 113.135 71.7691 115.72 69.1846L121.784 63.1226L126.755 58.1471L141.93 42.9728L144.097 40.8036C144.528 40.3722 144.816 39.8258 144.935 39.2371C144.98 39.0335 145 38.8319 145 38.6283ZM111.385 64.8402C111.331 64.8946 111.272 64.941 111.218 64.9934C110.811 65.3926 110.395 65.7756 109.964 66.1365C109.781 66.2917 109.585 66.4268 109.398 66.5739C109.085 66.8179 108.775 67.0638 108.452 67.2876C108.232 67.4388 108.007 67.5738 107.785 67.717C107.48 67.9125 107.178 68.1081 106.865 68.2875C106.628 68.4226 106.386 68.5456 106.144 68.6706C105.835 68.8319 105.527 68.9911 105.212 69.1363C104.964 69.2512 104.71 69.354 104.458 69.4588C104.142 69.5899 103.825 69.7189 103.503 69.8338C103.247 69.9265 102.989 70.0092 102.731 70.0918C102.406 70.1946 102.08 70.2934 101.751 70.3801C101.491 70.4487 101.229 70.5132 100.967 70.5717C100.632 70.6462 100.297 70.7148 99.9607 70.7733C99.7006 70.8196 99.4406 70.8619 99.1785 70.8982C98.8338 70.9466 98.489 70.9829 98.1423 71.0131C97.8863 71.0353 97.6302 71.0595 97.3722 71.0736C97.0153 71.0918 96.6565 71.0978 96.2997 71.0978C96.0537 71.0998 95.8057 71.1039 95.5598 71.0958C95.1868 71.0837 94.8159 71.0555 94.4429 71.0253C94.2111 71.0071 93.9793 70.993 93.7494 70.9668C93.3523 70.9204 92.9551 70.8539 92.56 70.7874C92.3584 70.7531 92.1548 70.7269 91.9532 70.6866C91.4855 70.5918 91.0218 70.4749 90.5581 70.3479C90.4331 70.3136 90.3041 70.2894 90.1791 70.2531C89.5884 70.0797 89.0018 69.8842 88.4232 69.6604C88.3627 69.6362 88.3043 69.606 88.2438 69.5818C87.7357 69.3802 87.2317 69.1604 86.7378 68.9165C86.5523 68.8258 86.3749 68.7189 86.1915 68.6222C85.8347 68.4327 85.4778 68.2452 85.1291 68.0335C84.5666 67.6948 84.0183 67.3299 83.482 66.9348C83.4417 66.9045 83.3993 66.8804 83.359 66.8522L91.6669 58.5422L107.246 42.9647L120.252 55.9698L113.766 62.4553L111.385 64.8402ZM96.213 6.13255C101.946 6.13255 107.333 8.36428 111.387 12.4205L137.595 38.6283L124.588 51.6355L83.3611 10.4065C87.0503 7.63249 91.5157 6.13255 96.213 6.13255Z" fill="white"/>
<path d="M22.577 23.456L22.5891 23.4419L13.1482 32.8827L22.577 23.456Z" fill="white"/>
<path d="M69.1343 66.4087C69.0174 65.818 68.7271 65.2717 68.2957 64.8402L60.1954 56.742L42.0838 38.6324L65.9732 14.743L68.2957 12.4205C68.8702 11.844 69.1928 11.0658 69.1928 10.2513C69.1928 9.43689 68.8702 8.65666 68.2957 8.0821C63.0843 2.87077 56.1554 0 48.7849 0C41.4165 0 34.4875 2.87077 29.2762 8.0821L0.897114 36.4592C0.780187 36.5781 0.67939 36.7091 0.584639 36.8422C0.211681 37.3603 0 37.9812 0 38.6264C0 39.4408 0.322558 40.221 0.897114 40.7955L3.06633 42.9648L18.2407 58.1391L23.2121 63.1146L29.2762 69.1766C31.8627 71.7631 34.8423 73.7086 38.0195 75.0512C41.4528 76.5007 45.1158 77.2426 48.7849 77.2426C48.8172 77.2426 48.8494 77.2386 48.8817 77.2386C49.6397 77.2366 50.3997 77.1942 51.1557 77.1297C51.4117 77.1075 51.6658 77.0753 51.9198 77.0471C52.4782 76.9846 53.0326 76.9039 53.589 76.8072C53.8491 76.7608 54.1091 76.7165 54.3692 76.6641C55.0264 76.529 55.6776 76.3697 56.3247 76.1882C56.4517 76.1519 56.5807 76.1258 56.7077 76.0895C57.4658 75.8637 58.2137 75.5976 58.9536 75.3053C59.1854 75.2145 59.4132 75.1097 59.643 75.0109C60.1652 74.7892 60.6813 74.5513 61.1913 74.2933C61.4493 74.1622 61.7074 74.0312 61.9614 73.8921C62.4775 73.6118 62.9835 73.3094 63.4835 72.9949C63.6891 72.8659 63.8988 72.747 64.1004 72.6119C64.1286 72.5938 64.1568 72.5776 64.185 72.5595C64.806 72.1422 65.4148 71.6966 66.0075 71.2209C66.0297 71.2027 66.0498 71.1806 66.074 71.1624C66.8079 70.5717 67.5195 69.9387 68.2029 69.2613C68.2332 69.2311 68.2674 69.2069 68.2997 69.1747C68.7009 68.7735 68.971 68.2694 69.102 67.7251C69.1585 67.4913 69.1968 67.2514 69.1968 67.0074C69.1948 66.8059 69.1746 66.6043 69.1343 66.4087ZM58.2621 68.9186C57.7682 69.1605 57.2642 69.3803 56.7561 69.5839C56.6957 69.6081 56.6372 69.6383 56.5767 69.6625C55.9981 69.8863 55.4135 70.0838 54.8228 70.2552C54.6958 70.2915 54.5688 70.3157 54.4418 70.3499C53.9801 70.4749 53.5185 70.5939 53.0508 70.6867C52.8492 70.727 52.6455 70.7532 52.4419 70.7874C52.0468 70.856 51.6516 70.9225 51.2525 70.9668C51.0206 70.993 50.7888 71.0052 50.557 71.0253C50.186 71.0556 49.8131 71.0838 49.4421 71.0959C49.1962 71.104 48.9482 71.0999 48.7023 71.0979C48.3454 71.0959 47.9866 71.0918 47.6298 71.0737C47.3737 71.0596 47.1177 71.0374 46.8597 71.0132C46.5129 70.983 46.1682 70.9467 45.8234 70.8983C45.5614 70.862 45.3013 70.8197 45.0412 70.7733C44.7046 70.7149 44.3679 70.6463 44.0352 70.5717C43.7732 70.5133 43.5111 70.4488 43.251 70.3802C42.9224 70.2935 42.5958 70.1947 42.2692 70.0919C42.0112 70.0093 41.7531 69.9266 41.4971 69.8339C41.1746 69.719 40.858 69.5899 40.5415 69.4589C40.2895 69.3541 40.0375 69.2512 39.7896 69.1363C39.4751 68.9912 39.1666 68.8299 38.8582 68.6686C38.6163 68.5436 38.3743 68.4227 38.1365 68.2856C37.824 68.1082 37.5216 67.9106 37.2172 67.7151C36.9934 67.572 36.7676 67.4369 36.5499 67.2857C36.2273 67.0619 35.9169 66.8159 35.6044 66.572C35.4169 66.4248 35.2213 66.2897 35.0379 66.1345C34.6065 65.7757 34.1912 65.3906 33.7839 64.9915C33.7295 64.937 33.6711 64.8927 33.6166 64.8383L31.2337 62.4574L24.7483 55.9719L37.7534 42.9668L54.3712 59.5825L61.6409 66.8522C61.5985 66.8825 61.5542 66.9087 61.5139 66.9389C60.9816 67.332 60.4333 67.6969 59.8728 68.0336C59.5241 68.2433 59.1673 68.4327 58.8104 68.6222C58.6249 68.721 58.4455 68.8279 58.2621 68.9186ZM33.6106 12.4205C37.6647 8.36436 43.0535 6.13262 48.7849 6.13262C53.4842 6.13262 57.9476 7.63256 61.6389 10.4045L20.4099 51.6335L7.40271 38.6264L33.6106 12.4205Z" fill="white"/>
</svg>
